<svg fill="none" xmlns="http://www.w3.org/2000/svg" viewBox="0 0 621 118"><path fill-rule="evenodd" clip-rule="evenodd" d="M0 118h621c-33.6-23.2-91.5-38.5-157.2-38.5-10.6 0-21 .4-31.1 1.1 2.3-1.3 3.6-3 3.6-4.7 0-1.4-.8-2.6-2.1-3.8a58 58 0 0017.7 2.6c15.2 0 27.5-4.9 27.5-10.9S467.1 53 452 53c-15.3 0-27.6 4.8-27.6 10.8 0 1.9 1.2 3.6 3.3 5.1-3.3-1-7.3-1.5-11.7-1.5-11.2 0-20.3 3.8-20.3 8.5 0 3.3 4.6 6.2 11.4 7.5A337.5 337.5 0 00374 90c-32.4-17.1-79.4-28.3-132.2-29.6C252.6 54 259 46 259 37.3 259 16.7 222.6 0 177.6 0 132.6 0 96 16.7 96 37.3c0 14.6 18.3 27.3 45 33.4-35.4 8.8-63.8 22.7-80.7 39.4-6-1.1-12.5-1.7-19.4-1.7-17 0-31.9 3.8-41 9.6zm91.3-90.3c0 10-17.7 18-39.5 18s-39.5-8-39.5-18 17.7-18 39.5-18 39.5 8 39.5 18z" fill="#fff"/></svg>