<svg id="heli" xmlns="http://www.w3.org/2000/svg" viewBox="0 0 64 64"><path id="blade" fill-rule="evenodd" clip-rule="evenodd" d="M48.97 17.06c0 .52-.42.94-.94.94H5.93a.94.94 0 010-1.87h42.1c.52 0 .94.42.94.93z"/><path id="body" fill-rule="evenodd" clip-rule="evenodd" d="M57.45 26.85L40.11 28.9c-2.5-5.2-6.13-6.28-7.63-6.17h-4.85v-3.08c.69 0 1.73-.69 1.73-2.06s-1.04-2.4-2.43-2.4a2.36 2.36 0 00-2.43 2.4c0 1.37 1.05 2.06 1.74 2.06v3.08h-4.16c-3.33 0-6.94 2.74-8.33 4.12-2.3 2.05-6.45 7.4-4.5 12.33.98 2.5 4.88 3.58 9.34 3.92l-1.28 4.65h-1.47c-.88 0-1.29-.26-1.47-.45-.25-.26-.56-.58-.92-.58h-.39c-.57 0-1.05.48-.84 1 .13.34.34.69.64 1a3.99 3.99 0 002.98 1.09h19.42l.2-.02a3.43 3.43 0 001.58-.81c.35-.32.65-.73.83-1.25.18-.53-.3-1-.88-1h-.2c-.38 0-.69.29-.98.56l-.17.17c-.3.27-.7.29-1.1.29h-1.7l-1.44-5.2c4.68-1.14 7.7-5.16 8.71-8.85L63 29.24v-11.3h-2.08l-3.47 8.9zm-37.98 20.9h11.2l-1.35-4.9v-.02c-2.5.27-5.59.46-8.6.38l-1.25 4.54zm-7.82-14.74h10.22c.11 0 .2-.09.2-.2v-8.5a.2.2 0 00-.2-.2c-4.5.16-8.9 5.52-10.4 8.62a.2.2 0 00.18.28z"/></svg>
